FFmpeg version SVN-r25716, Copyright (c) 2000-2010 the FFmpeg developers  built on Nov 10 2010 12:23:18 with gcc 4.1.2 20080704 (Red Hat 4.1.2-48)  configuration: --enable-libmp3lame --enable-shared --disable-mmx --arch=x86_64  libavutil     50.33. 0 / 50.33. 0  libavcore      0.12. 1 /  0.12. 1  libavcodec    52.94. 4 / 52.94. 4  libavformat   52.84. 0 / 52.84. 0  libavdevice   52. 2. 2 / 52. 2. 2  libavfilter    1.59. 0 /  1.59. 0  libswscale     0.12. 0 /  0.12. 0Input #0, avi, from '/RAID10/data/converted_video_files/30546.avi':  Duration: 00:00:18.10, start: 0.000000, bitrate: 17027 kb/s    Stream #0.0: Video: rawvideo, bgr24, 276x257, 10 tbr, 10 tbn, 10 tbc    Metadata:      title           : FileAVI write  [buffer @ 0x1902c6e0] w:276 h:257 pixfmt:bgr24[ffsink @ 0x1902c950] auto-inserting filter 'auto-inserted scaler 0' between the filter 'src' and the filter 'out'[scale @ 0x1902cc70] w:276 h:257 fmt:bgr24 -> w:276 h:257 fmt:yuv420p flags:0x4Output #0, flv, to '/RAID10/data/converted_video_files/30546.flv':  Metadata:    encoder         : Lavf52.84.0    Stream #0.0: Video: flv, yuv420p, 276x257, q=2-31, 600 kb/s, 1k tbn, 24 tbc    Metadata:      title           : FileAVI write  Stream mapping:  Stream #0.0 -> #0.0Press [q] to stop encodingframe=  126 fps=  0 q=4.5 size=     704kB time=12.54 bitrate= 459.6kbits/s    frame=  181 fps=  0 q=3.6 Lsize=    1035kB time=18.04 bitrate= 469.8kbits/s    video:1032kB audio:0kB global headers:0kB muxing overhead 0.294038%